<svg width="20" height="20" viewBox="0 0 20 20" fill="none" xmlns="http://www.w3.org/2000/svg">
<circle cx="10" cy="10" r="10" fill="#39DB4A"/>
<path d="M9.62358 15.1392C8.85795 15.1392 8.17685 15.0149 7.58026 14.7663C6.98698 14.5144 6.52131 14.1714 6.18324 13.7372C5.84517 13.303 5.67614 12.8108 5.67614 12.2607C5.67614 11.8364 5.77225 11.447 5.96449 11.0923C6.16004 10.7344 6.42519 10.4377 6.75994 10.2024C7.0947 9.96378 7.46922 9.81132 7.88352 9.74503V9.67543C7.33996 9.56605 6.89915 9.30256 6.56108 8.88494C6.22301 8.46401 6.05398 7.97514 6.05398 7.41832C6.05398 6.89134 6.2081 6.42235 6.51634 6.01136C6.82457 5.59706 7.24716 5.27225 7.78409 5.03693C8.32434 4.7983 8.9375 4.67898 9.62358 4.67898C10.3097 4.67898 10.9212 4.7983 11.4581 5.03693C11.9983 5.27557 12.4226 5.60204 12.7308 6.01633C13.0391 6.42732 13.1948 6.89465 13.1982 7.41832C13.1948 7.97846 13.0225 8.46733 12.6811 8.88494C12.3397 9.30256 11.9022 9.56605 11.3686 9.67543V9.74503C11.7763 9.81132 12.1458 9.96378 12.4773 10.2024C12.812 10.4377 13.0772 10.7344 13.2727 11.0923C13.4716 11.447 13.5727 11.8364 13.576 12.2607C13.5727 12.8108 13.402 13.303 13.0639 13.7372C12.7259 14.1714 12.2585 14.5144 11.6619 14.7663C11.0687 15.0149 10.3892 15.1392 9.62358 15.1392ZM9.62358 13.5582C9.96496 13.5582 10.2633 13.4969 10.5185 13.3743C10.7737 13.2483 10.9725 13.076 11.1151 12.8572C11.2609 12.6352 11.3338 12.38 11.3338 12.0916C11.3338 11.7966 11.2592 11.5365 11.1101 11.3111C10.9609 11.0824 10.7588 10.9034 10.5036 10.7741C10.2483 10.6416 9.95502 10.5753 9.62358 10.5753C9.29545 10.5753 9.00213 10.6416 8.74361 10.7741C8.48509 10.9034 8.28125 11.0824 8.1321 11.3111C7.98627 11.5365 7.91335 11.7966 7.91335 12.0916C7.91335 12.38 7.98461 12.6352 8.12713 12.8572C8.26965 13.076 8.47017 13.2483 8.72869 13.3743C8.98722 13.4969 9.28551 13.5582 9.62358 13.5582ZM9.62358 9.00923C9.90862 9.00923 10.1622 8.95123 10.3842 8.83523C10.6063 8.71922 10.7803 8.55848 10.9062 8.35298C11.0322 8.14749 11.0952 7.91051 11.0952 7.64205C11.0952 7.37689 11.0322 7.14489 10.9062 6.94602C10.7803 6.74384 10.608 6.58641 10.3892 6.47372C10.1705 6.35772 9.91525 6.29972 9.62358 6.29972C9.33523 6.29972 9.08002 6.35772 8.85795 6.47372C8.63589 6.58641 8.46188 6.74384 8.33594 6.94602C8.2133 7.14489 8.15199 7.37689 8.15199 7.64205C8.15199 7.91051 8.21496 8.14749 8.34091 8.35298C8.46686 8.55848 8.64086 8.71922 8.86293 8.83523C9.08499 8.95123 9.33854 9.00923 9.62358 9.00923Z" fill="white"/>
</svg>
